<mxfile host="Electron" modified="2023-07-01T15:38:29.571Z" agent="Mozilla/5.0 (Macintosh; Intel Mac OS X 10_15_7) AppleWebKit/537.36 (KHTML, like Gecko) draw.io/21.3.7 Chrome/112.0.5615.204 Electron/24.5.0 Safari/537.36" etag="emjU3n_BJQxAhqfseHxW" version="21.3.7" type="device">
  <diagram name="第 1 页" id="cDEk6XNcKek-WAjLcnGO">
    <mxGraphModel dx="708" dy="470" grid="0" gridSize="10" guides="1" tooltips="1" connect="1" arrows="1" fold="1" page="1" pageScale="1" pageWidth="827" pageHeight="1169" math="0" shadow="0">
      <root>
        <mxCell id="0" />
        <mxCell id="1" parent="0" />
        <mxCell id="wikc9cr1I75WuTmCPpgR-2" value="" style="endArrow=classic;html=1;rounded=0;entryX=0.519;entryY=0.993;entryDx=0;entryDy=0;entryPerimeter=0;" edge="1" parent="1" target="wikc9cr1I75WuTmCPpgR-39">
          <mxGeometry width="50" height="50" relative="1" as="geometry">
            <mxPoint x="581" y="636" as="sourcePoint" />
            <mxPoint x="581" y="436" as="targetPoint" />
          </mxGeometry>
        </mxCell>
        <mxCell id="wikc9cr1I75WuTmCPpgR-3" value="" style="endArrow=classic;html=1;rounded=0;entryX=0.376;entryY=1;entryDx=0;entryDy=0;entryPerimeter=0;" edge="1" parent="1" target="wikc9cr1I75WuTmCPpgR-39">
          <mxGeometry width="50" height="50" relative="1" as="geometry">
            <mxPoint x="540.8299999999999" y="636" as="sourcePoint" />
            <mxPoint x="541" y="434" as="targetPoint" />
          </mxGeometry>
        </mxCell>
        <mxCell id="wikc9cr1I75WuTmCPpgR-4" value="" style="endArrow=classic;html=1;rounded=0;entryX=0.082;entryY=1.014;entryDx=0;entryDy=0;entryPerimeter=0;" edge="1" parent="1" target="wikc9cr1I75WuTmCPpgR-39">
          <mxGeometry width="50" height="50" relative="1" as="geometry">
            <mxPoint x="461" y="636" as="sourcePoint" />
            <mxPoint x="461" y="434" as="targetPoint" />
          </mxGeometry>
        </mxCell>
        <mxCell id="wikc9cr1I75WuTmCPpgR-5" value="" style="endArrow=classic;html=1;rounded=0;entryX=0.231;entryY=1.016;entryDx=0;entryDy=0;entryPerimeter=0;" edge="1" parent="1" target="wikc9cr1I75WuTmCPpgR-39">
          <mxGeometry width="50" height="50" relative="1" as="geometry">
            <mxPoint x="500.72" y="636" as="sourcePoint" />
            <mxPoint x="501" y="434" as="targetPoint" />
          </mxGeometry>
        </mxCell>
        <mxCell id="wikc9cr1I75WuTmCPpgR-6" value="" style="endArrow=classic;html=1;rounded=0;entryX=0.669;entryY=0.993;entryDx=0;entryDy=0;entryPerimeter=0;" edge="1" parent="1" target="wikc9cr1I75WuTmCPpgR-39">
          <mxGeometry width="50" height="50" relative="1" as="geometry">
            <mxPoint x="621" y="636" as="sourcePoint" />
            <mxPoint x="621" y="476" as="targetPoint" />
          </mxGeometry>
        </mxCell>
        <mxCell id="wikc9cr1I75WuTmCPpgR-7" value="&lt;font face=&quot;Georgia&quot;&gt;[CLS]&lt;/font&gt;" style="text;html=1;align=center;verticalAlign=middle;resizable=0;points=[];autosize=1;strokeColor=none;fillColor=none;" vertex="1" parent="1">
          <mxGeometry x="195" y="634" width="50" height="30" as="geometry" />
        </mxCell>
        <mxCell id="wikc9cr1I75WuTmCPpgR-8" value="&lt;font color=&quot;#ea6b66&quot; face=&quot;宋体-简&quot;&gt;&amp;lt;t&amp;gt;使&lt;/font&gt;" style="text;html=1;align=center;verticalAlign=middle;resizable=0;points=[];autosize=1;strokeColor=none;fillColor=none;" vertex="1" parent="1">
          <mxGeometry x="258" y="634" width="60" height="30" as="geometry" />
        </mxCell>
        <mxCell id="wikc9cr1I75WuTmCPpgR-9" value="&lt;font color=&quot;#ea6b66&quot; face=&quot;宋体-简&quot;&gt;用&amp;lt;/t&amp;gt;&amp;lt;f&amp;gt;&lt;/font&gt;&lt;font face=&quot;楷体-简&quot; color=&quot;#ea6b66&quot;&gt;使用资源&lt;/font&gt;&lt;font color=&quot;#ea6b66&quot; face=&quot;宋体-简&quot;&gt;&amp;lt;/f&amp;gt;&lt;/font&gt;" style="text;html=1;align=center;verticalAlign=middle;resizable=0;points=[];autosize=1;strokeColor=none;fillColor=none;" vertex="1" parent="1">
          <mxGeometry x="307" y="636" width="150" height="26" as="geometry" />
        </mxCell>
        <mxCell id="wikc9cr1I75WuTmCPpgR-10" value="..." style="text;html=1;align=center;verticalAlign=middle;resizable=0;points=[];autosize=1;strokeColor=none;fillColor=none;" vertex="1" parent="1">
          <mxGeometry x="230" y="634" width="28" height="26" as="geometry" />
        </mxCell>
        <mxCell id="wikc9cr1I75WuTmCPpgR-11" value="&lt;font color=&quot;#7ea6e0&quot;&gt;沥&lt;/font&gt;" style="text;html=1;align=center;verticalAlign=middle;resizable=0;points=[];autosize=1;strokeColor=none;fillColor=none;fontFamily=宋体-简;" vertex="1" parent="1">
          <mxGeometry x="444" y="636" width="30" height="26" as="geometry" />
        </mxCell>
        <mxCell id="wikc9cr1I75WuTmCPpgR-12" value="&lt;font color=&quot;#7ea6e0&quot;&gt;青&lt;/font&gt;" style="text;html=1;align=center;verticalAlign=middle;resizable=0;points=[];autosize=1;strokeColor=none;fillColor=none;fontFamily=宋体-简;" vertex="1" parent="1">
          <mxGeometry x="484" y="636" width="30" height="26" as="geometry" />
        </mxCell>
        <mxCell id="wikc9cr1I75WuTmCPpgR-13" value="&lt;font color=&quot;#7ea6e0&quot;&gt;石&lt;/font&gt;" style="text;html=1;align=center;verticalAlign=middle;resizable=0;points=[];autosize=1;strokeColor=none;fillColor=none;fontFamily=宋体-简;" vertex="1" parent="1">
          <mxGeometry x="524" y="636" width="30" height="26" as="geometry" />
        </mxCell>
        <mxCell id="wikc9cr1I75WuTmCPpgR-14" value="" style="endArrow=classic;html=1;rounded=0;" edge="1" parent="1">
          <mxGeometry width="50" height="50" relative="1" as="geometry">
            <mxPoint x="376" y="636" as="sourcePoint" />
            <mxPoint x="376" y="476" as="targetPoint" />
          </mxGeometry>
        </mxCell>
        <mxCell id="wikc9cr1I75WuTmCPpgR-17" value="和" style="text;html=1;align=center;verticalAlign=middle;resizable=0;points=[];autosize=1;strokeColor=none;fillColor=none;fontFamily=宋体-简;" vertex="1" parent="1">
          <mxGeometry x="239" y="634" width="40" height="30" as="geometry" />
        </mxCell>
        <mxCell id="wikc9cr1I75WuTmCPpgR-18" value="" style="endArrow=classic;html=1;rounded=0;entryX=0.812;entryY=1.016;entryDx=0;entryDy=0;entryPerimeter=0;" edge="1" parent="1" target="wikc9cr1I75WuTmCPpgR-39">
          <mxGeometry width="50" height="50" relative="1" as="geometry">
            <mxPoint x="661" y="636" as="sourcePoint" />
            <mxPoint x="661" y="476" as="targetPoint" />
          </mxGeometry>
        </mxCell>
        <mxCell id="wikc9cr1I75WuTmCPpgR-19" value="" style="endArrow=classic;html=1;rounded=0;" edge="1" parent="1">
          <mxGeometry width="50" height="50" relative="1" as="geometry">
            <mxPoint x="300" y="636" as="sourcePoint" />
            <mxPoint x="300" y="476" as="targetPoint" />
          </mxGeometry>
        </mxCell>
        <mxCell id="wikc9cr1I75WuTmCPpgR-20" value="&lt;font face=&quot;Georgia&quot;&gt;[SEP]&lt;/font&gt;" style="text;html=1;align=center;verticalAlign=middle;resizable=0;points=[];autosize=1;strokeColor=none;fillColor=none;" vertex="1" parent="1">
          <mxGeometry x="713" y="636" width="50" height="30" as="geometry" />
        </mxCell>
        <mxCell id="wikc9cr1I75WuTmCPpgR-21" value="..." style="text;html=1;align=center;verticalAlign=middle;resizable=0;points=[];autosize=1;strokeColor=none;fillColor=none;" vertex="1" parent="1">
          <mxGeometry x="546.5" y="634" width="28" height="26" as="geometry" />
        </mxCell>
        <mxCell id="wikc9cr1I75WuTmCPpgR-22" value="" style="endArrow=classic;html=1;rounded=0;" edge="1" parent="1">
          <mxGeometry width="50" height="50" relative="1" as="geometry">
            <mxPoint x="260" y="636" as="sourcePoint" />
            <mxPoint x="260" y="476" as="targetPoint" />
          </mxGeometry>
        </mxCell>
        <mxCell id="wikc9cr1I75WuTmCPpgR-23" value="" style="endArrow=classic;html=1;rounded=0;" edge="1" parent="1">
          <mxGeometry width="50" height="50" relative="1" as="geometry">
            <mxPoint x="220" y="636" as="sourcePoint" />
            <mxPoint x="220" y="476" as="targetPoint" />
          </mxGeometry>
        </mxCell>
        <mxCell id="wikc9cr1I75WuTmCPpgR-25" value="" style="shape=curlyBracket;whiteSpace=wrap;html=1;rounded=1;flipH=1;labelPosition=right;verticalLabelPosition=middle;align=left;verticalAlign=middle;direction=north;" vertex="1" parent="1">
          <mxGeometry x="451.5" y="660" width="95" height="20" as="geometry" />
        </mxCell>
        <mxCell id="wikc9cr1I75WuTmCPpgR-26" value="&lt;font style=&quot;font-size: 10px;&quot; face=&quot;Georgia&quot;&gt;argument 1&lt;/font&gt;" style="text;html=1;align=center;verticalAlign=middle;resizable=0;points=[];autosize=1;strokeColor=none;fillColor=none;" vertex="1" parent="1">
          <mxGeometry x="465" y="675" width="68" height="26" as="geometry" />
        </mxCell>
        <mxCell id="wikc9cr1I75WuTmCPpgR-27" value="" style="shape=curlyBracket;whiteSpace=wrap;html=1;rounded=1;flipH=1;labelPosition=right;verticalLabelPosition=middle;align=left;verticalAlign=middle;direction=north;" vertex="1" parent="1">
          <mxGeometry x="276" y="660" width="68" height="20" as="geometry" />
        </mxCell>
        <mxCell id="wikc9cr1I75WuTmCPpgR-28" value="&lt;font style=&quot;font-size: 10px;&quot; face=&quot;Georgia&quot;&gt;target word&lt;/font&gt;" style="text;html=1;align=center;verticalAlign=middle;resizable=0;points=[];autosize=1;strokeColor=none;fillColor=none;" vertex="1" parent="1">
          <mxGeometry x="275.5" y="675" width="69" height="26" as="geometry" />
        </mxCell>
        <mxCell id="wikc9cr1I75WuTmCPpgR-46" value="&lt;font style=&quot;font-size: 14px;&quot; face=&quot;Georgia&quot;&gt;MLP&lt;/font&gt;" style="rounded=1;whiteSpace=wrap;html=1;fillColor=#f8cecc;strokeColor=#b85450;" vertex="1" parent="1">
          <mxGeometry x="445" y="400" width="112" height="20" as="geometry" />
        </mxCell>
        <mxCell id="wikc9cr1I75WuTmCPpgR-47" value="" style="endArrow=classic;html=1;rounded=0;entryX=0.954;entryY=1.016;entryDx=0;entryDy=0;entryPerimeter=0;" edge="1" parent="1" target="wikc9cr1I75WuTmCPpgR-39">
          <mxGeometry width="50" height="50" relative="1" as="geometry">
            <mxPoint x="700" y="636" as="sourcePoint" />
            <mxPoint x="700" y="476" as="targetPoint" />
          </mxGeometry>
        </mxCell>
        <mxCell id="wikc9cr1I75WuTmCPpgR-48" value="" style="endArrow=classic;html=1;rounded=0;" edge="1" parent="1">
          <mxGeometry width="50" height="50" relative="1" as="geometry">
            <mxPoint x="737" y="636" as="sourcePoint" />
            <mxPoint x="737" y="476" as="targetPoint" />
          </mxGeometry>
        </mxCell>
        <mxCell id="wikc9cr1I75WuTmCPpgR-49" value="&lt;font color=&quot;#7ea6e0&quot;&gt;委&lt;/font&gt;" style="text;html=1;align=center;verticalAlign=middle;resizable=0;points=[];autosize=1;strokeColor=none;fillColor=none;fontFamily=宋体-简;" vertex="1" parent="1">
          <mxGeometry x="566" y="636" width="30" height="26" as="geometry" />
        </mxCell>
        <mxCell id="wikc9cr1I75WuTmCPpgR-50" value="&lt;font color=&quot;#7ea6e0&quot;&gt;内&lt;/font&gt;" style="text;html=1;align=center;verticalAlign=middle;resizable=0;points=[];autosize=1;strokeColor=none;fillColor=none;fontFamily=宋体-简;" vertex="1" parent="1">
          <mxGeometry x="606" y="636" width="30" height="26" as="geometry" />
        </mxCell>
        <mxCell id="wikc9cr1I75WuTmCPpgR-51" value="&lt;font color=&quot;#7ea6e0&quot;&gt;瑞&lt;/font&gt;" style="text;html=1;align=center;verticalAlign=middle;resizable=0;points=[];autosize=1;strokeColor=none;fillColor=none;fontFamily=宋体-简;" vertex="1" parent="1">
          <mxGeometry x="646" y="636" width="30" height="26" as="geometry" />
        </mxCell>
        <mxCell id="wikc9cr1I75WuTmCPpgR-52" value="&lt;font color=&quot;#7ea6e0&quot;&gt;拉&lt;/font&gt;" style="text;html=1;align=center;verticalAlign=middle;resizable=0;points=[];autosize=1;strokeColor=none;fillColor=none;fontFamily=宋体-简;" vertex="1" parent="1">
          <mxGeometry x="686" y="636" width="30" height="26" as="geometry" />
        </mxCell>
        <mxCell id="wikc9cr1I75WuTmCPpgR-53" value="" style="shape=curlyBracket;whiteSpace=wrap;html=1;rounded=1;flipH=1;labelPosition=right;verticalLabelPosition=middle;align=left;verticalAlign=middle;direction=north;" vertex="1" parent="1">
          <mxGeometry x="579" y="662" width="125" height="20" as="geometry" />
        </mxCell>
        <mxCell id="wikc9cr1I75WuTmCPpgR-54" value="&lt;font style=&quot;font-size: 10px;&quot; face=&quot;Georgia&quot;&gt;argument 2&lt;/font&gt;" style="text;html=1;align=center;verticalAlign=middle;resizable=0;points=[];autosize=1;strokeColor=none;fillColor=none;" vertex="1" parent="1">
          <mxGeometry x="605" y="675" width="69" height="26" as="geometry" />
        </mxCell>
        <mxCell id="wikc9cr1I75WuTmCPpgR-24" value="&lt;font style=&quot;font-size: 22px;&quot; face=&quot;Georgia&quot;&gt;ERNIE&lt;/font&gt;" style="rounded=1;whiteSpace=wrap;html=1;fillColor=#dae8fc;strokeColor=#6c8ebf;" vertex="1" parent="1">
          <mxGeometry x="195" y="517" width="570" height="100" as="geometry" />
        </mxCell>
        <mxCell id="wikc9cr1I75WuTmCPpgR-55" value="" style="shape=curlyBracket;whiteSpace=wrap;html=1;rounded=1;flipH=1;labelPosition=right;verticalLabelPosition=middle;align=left;verticalAlign=middle;direction=north;" vertex="1" parent="1">
          <mxGeometry x="360" y="660" width="86" height="21" as="geometry" />
        </mxCell>
        <mxCell id="wikc9cr1I75WuTmCPpgR-56" value="&lt;font face=&quot;Georgia&quot;&gt;&lt;span style=&quot;font-size: 10px;&quot;&gt;frame&lt;/span&gt;&lt;/font&gt;" style="text;html=1;align=center;verticalAlign=middle;resizable=0;points=[];autosize=1;strokeColor=none;fillColor=none;" vertex="1" parent="1">
          <mxGeometry x="381.5" y="675" width="44" height="26" as="geometry" />
        </mxCell>
        <mxCell id="wikc9cr1I75WuTmCPpgR-39" value="&lt;font style=&quot;font-size: 14px;&quot; face=&quot;Georgia&quot;&gt;MaxPooling Span Extractor&lt;/font&gt;" style="rounded=1;whiteSpace=wrap;html=1;fillColor=#d5e8d4;strokeColor=#82b366;" vertex="1" parent="1">
          <mxGeometry x="439" y="446" width="271" height="31" as="geometry" />
        </mxCell>
        <mxCell id="wikc9cr1I75WuTmCPpgR-61" value="&lt;font style=&quot;font-size: 14px;&quot; face=&quot;Georgia&quot;&gt;MLP&lt;/font&gt;" style="rounded=1;whiteSpace=wrap;html=1;fillColor=#f8cecc;strokeColor=#b85450;" vertex="1" parent="1">
          <mxGeometry x="574.5" y="400" width="132" height="20" as="geometry" />
        </mxCell>
        <mxCell id="wikc9cr1I75WuTmCPpgR-62" value="" style="endArrow=classic;html=1;rounded=0;entryX=0.485;entryY=0.983;entryDx=0;entryDy=0;entryPerimeter=0;exitX=0.222;exitY=-0.005;exitDx=0;exitDy=0;exitPerimeter=0;" edge="1" parent="1" source="wikc9cr1I75WuTmCPpgR-39" target="wikc9cr1I75WuTmCPpgR-46">
          <mxGeometry width="50" height="50" relative="1" as="geometry">
            <mxPoint x="499" y="442" as="sourcePoint" />
            <mxPoint x="456" y="296" as="targetPoint" />
          </mxGeometry>
        </mxCell>
        <mxCell id="wikc9cr1I75WuTmCPpgR-64" value="" style="endArrow=classic;html=1;rounded=0;exitX=0.738;exitY=-0.014;exitDx=0;exitDy=0;exitPerimeter=0;entryX=0.486;entryY=1;entryDx=0;entryDy=0;entryPerimeter=0;" edge="1" parent="1" source="wikc9cr1I75WuTmCPpgR-39" target="wikc9cr1I75WuTmCPpgR-61">
          <mxGeometry width="50" height="50" relative="1" as="geometry">
            <mxPoint x="639" y="442" as="sourcePoint" />
            <mxPoint x="639" y="421" as="targetPoint" />
          </mxGeometry>
        </mxCell>
        <mxCell id="wikc9cr1I75WuTmCPpgR-67" value="&lt;font face=&quot;楷体-简&quot;&gt;资源&lt;/font&gt;" style="text;html=1;align=center;verticalAlign=middle;resizable=0;points=[];autosize=1;strokeColor=none;fillColor=none;" vertex="1" parent="1">
          <mxGeometry x="473" y="350" width="50" height="30" as="geometry" />
        </mxCell>
        <mxCell id="wikc9cr1I75WuTmCPpgR-68" value="&lt;font face=&quot;楷体-简&quot;&gt;施动者&lt;/font&gt;" style="text;html=1;align=center;verticalAlign=middle;resizable=0;points=[];autosize=1;strokeColor=none;fillColor=none;" vertex="1" parent="1">
          <mxGeometry x="608.5" y="350" width="60" height="30" as="geometry" />
        </mxCell>
        <mxCell id="wikc9cr1I75WuTmCPpgR-69" value="" style="endArrow=classic;html=1;rounded=0;exitX=0.484;exitY=-0.008;exitDx=0;exitDy=0;exitPerimeter=0;dashed=1;" edge="1" parent="1" source="wikc9cr1I75WuTmCPpgR-46">
          <mxGeometry width="50" height="50" relative="1" as="geometry">
            <mxPoint x="500.75" y="400" as="sourcePoint" />
            <mxPoint x="499" y="373" as="targetPoint" />
          </mxGeometry>
        </mxCell>
        <mxCell id="wikc9cr1I75WuTmCPpgR-70" value="" style="endArrow=classic;html=1;rounded=0;exitX=0.738;exitY=-0.014;exitDx=0;exitDy=0;exitPerimeter=0;dashed=1;" edge="1" parent="1">
          <mxGeometry width="50" height="50" relative="1" as="geometry">
            <mxPoint x="638.44" y="400" as="sourcePoint" />
            <mxPoint x="638" y="374" as="targetPoint" />
          </mxGeometry>
        </mxCell>
        <mxCell id="wikc9cr1I75WuTmCPpgR-72" value="&lt;font face=&quot;Georgia&quot;&gt;argument role&lt;/font&gt;" style="text;html=1;strokeColor=none;fillColor=none;align=center;verticalAlign=middle;whiteSpace=wrap;rounded=0;" vertex="1" parent="1">
          <mxGeometry x="522" y="312" width="92" height="30" as="geometry" />
        </mxCell>
        <mxCell id="wikc9cr1I75WuTmCPpgR-73" value="" style="shape=curlyBracket;whiteSpace=wrap;html=1;rounded=1;flipH=1;labelPosition=right;verticalLabelPosition=middle;align=left;verticalAlign=middle;direction=south;" vertex="1" parent="1">
          <mxGeometry x="499" y="335" width="138" height="20" as="geometry" />
        </mxCell>
      </root>
    </mxGraphModel>
  </diagram>
</mxfile>
